<svg version="1.1" id="Layer_1" xmlns="http://www.w3.org/2000/svg" xmlns:xlink="http://www.w3.org/1999/xlink" x="0px" y="0px"
	 width="100%" viewBox="0 0 200 155" enable-background="new 0 0 200 155" xml:space="preserve">
<path fill="#000000" opacity="1.000000" stroke="none" 
	d="
M82.000000,156.000000 
	C55.079506,156.000000 28.159014,156.000000 1.000000,156.000000 
	C1.000000,133.646332 1.000000,111.291824 1.249594,88.137093 
	C1.985242,87.593452 2.471297,87.850037 2.986244,88.335068 
	C3.015137,88.563530 3.166718,88.998421 3.170336,89.325272 
	C4.086895,90.778984 4.999836,91.905846 5.975365,93.406509 
	C8.667373,100.304161 13.946540,104.587540 19.095619,109.401321 
	C20.806648,111.093307 22.398148,112.465958 24.310165,113.987610 
	C30.075924,117.463333 35.521164,120.790062 41.128891,124.432884 
	C43.514214,125.538086 45.737045,126.327202 48.141342,127.444954 
	C53.202518,128.885529 58.082222,129.997452 63.166290,131.447769 
	C69.872360,132.861832 76.374069,133.937515 82.752342,135.413559 
	C82.419273,142.542618 82.209641,149.271301 82.000000,156.000000 
z"/>
<path fill="#2165B8" opacity="1.000000" stroke="none" 
	d="
M82.463188,156.000000 
	C82.209641,149.271301 82.419273,142.542618 82.764313,135.353729 
	C82.899719,134.893555 83.021667,134.884140 83.262024,134.918701 
	C83.502388,134.953247 83.985756,135.000488 84.186050,134.871216 
	C84.636406,134.538361 84.835480,134.293335 85.238693,133.780273 
	C87.101555,131.299637 88.371391,128.673431 90.374443,126.854774 
	C100.002335,118.113205 109.673309,109.404816 119.639008,101.054649 
	C126.142250,95.605652 131.871567,88.719749 141.171524,87.546898 
	C141.868637,87.458977 142.369263,85.813148 142.988525,84.579285 
	C143.636475,83.498993 144.257141,82.730949 145.258636,81.947037 
	C146.549881,80.755936 147.600250,79.660995 148.332962,78.383827 
	C149.131042,76.992714 149.231445,74.960854 150.330826,74.021614 
	C158.187317,67.309502 164.612122,58.639854 175.195724,55.539185 
	C176.000763,55.303333 176.433121,53.795380 177.346680,53.025558 
	C179.124542,54.455040 180.594421,55.737709 182.026199,57.015190 
	C181.988113,57.010006 181.997009,56.933655 181.997543,57.316704 
	C182.276077,62.233482 182.554077,66.767212 182.467255,71.157288 
	C179.230026,69.068817 177.064850,69.444939 174.299530,71.931351 
	C166.717575,78.748573 158.689117,85.068092 150.865036,91.617599 
	C146.959991,94.886482 142.920380,98.029182 139.297729,101.591133 
	C135.624817,105.202507 132.390839,109.260300 128.637573,113.069412 
	C127.874016,112.954132 127.437523,112.892014 126.897194,112.526970 
	C125.528908,112.424133 124.264442,112.624214 122.613846,112.888199 
	C120.866699,112.890976 119.505684,112.829865 118.103271,112.766899 
	C118.103271,114.981842 118.103271,116.961678 117.873398,119.142181 
	C117.401993,119.896896 117.160446,120.450943 116.572708,121.133224 
	C114.485062,125.000237 113.253952,129.117264 110.847969,132.363510 
	C108.752914,135.190231 105.234360,136.924454 102.517464,139.335938 
	C97.650414,143.655869 92.913101,148.121964 88.097580,152.548981 
	C90.672142,153.836197 92.836075,154.918091 95.000000,156.000000 
	C90.975456,156.000000 86.950912,156.000000 82.463188,156.000000 
z"/>
<path fill="#000000" opacity="1.000000" stroke="none" 
	d="
M121.000000,0.999999 
	C147.577988,1.000000 174.155960,1.000000 201.000000,1.000000 
	C201.000000,18.019970 201.000000,35.041328 200.706436,52.833168 
	C198.318939,49.720116 196.225006,45.836582 193.987991,41.638748 
	C191.244736,38.179008 188.644562,35.033562 185.906738,31.582966 
	C182.527817,28.812902 179.286575,26.347988 175.905777,23.574121 
	C172.860062,21.137049 169.953873,19.008930 166.870682,16.567421 
	C162.477127,14.460598 158.260605,12.667168 153.837204,10.539396 
	C150.747742,9.526438 147.865128,8.847820 144.597305,8.092361 
	C139.138718,6.733055 134.065353,5.450590 128.586746,4.088282 
	C126.359680,3.670028 124.490524,3.479953 122.739082,2.921002 
	C122.027512,2.693912 121.572014,1.664402 121.000000,0.999999 
z"/>
<path fill="#000000" opacity="1.000000" stroke="none" 
	d="
M1.000000,52.000000 
	C1.000000,35.060688 1.000000,18.121376 1.000000,1.000000 
	C24.687250,1.000000 48.374966,1.000000 72.489784,1.387033 
	C70.944069,2.571552 68.971260,3.369037 66.593338,4.089257 
	C61.458080,5.397178 56.727924,6.782364 51.634010,8.204784 
	C49.107529,9.172556 46.882141,9.981112 44.792744,11.054393 
	C34.863514,16.154823 25.139423,21.497679 17.377710,29.851818 
	C11.785223,35.871155 5.628257,41.375042 3.037570,49.569271 
	C2.742963,50.501102 1.697369,51.195503 1.000000,52.000000 
z"/>
<path fill="#000000" opacity="1.000000" stroke="none" 
	d="
M201.000000,85.000000 
	C201.000000,108.666672 201.000000,132.333344 201.000000,156.000000 
	C198.970230,156.000000 196.983017,156.000000 194.479828,155.621613 
	C190.017029,148.483902 186.070236,141.724564 182.059113,134.609238 
	C178.942444,128.521805 175.890076,122.790352 172.996185,116.740036 
	C183.735443,109.254463 192.394852,100.408005 197.810852,88.630219 
	C198.455719,87.227844 199.917084,86.200935 201.000000,85.000000 
z"/>
<path fill="#1B5FAF" opacity="1.000000" stroke="none" 
	d="
M172.837723,117.058899 
	C175.890076,122.790352 178.942444,128.521805 181.661102,134.614594 
	C177.411987,133.726761 174.557068,134.905869 172.089554,138.259445 
	C170.563461,140.333542 167.928146,141.563858 166.248672,143.558517 
	C162.789734,147.666641 155.862183,148.950928 156.000000,156.000000 
	C154.933334,156.000000 153.866653,156.000000 152.601868,155.654785 
	C148.557785,147.209656 144.711838,139.109711 140.870667,130.665039 
	C140.206985,128.639404 139.538528,126.958527 139.073944,125.130287 
	C140.861847,124.498215 142.713013,124.383865 143.984909,123.466431 
	C150.422089,118.823158 154.404678,110.288467 164.441040,111.101105 
	C167.437744,113.191475 170.137741,115.125183 172.837723,117.058899 
z"/>
<path fill="#C7CACC" opacity="1.000000" stroke="none" 
	d="
M1.000000,52.463184 
	C1.697369,51.195503 2.742963,50.501102 3.037570,49.569271 
	C5.628257,41.375042 11.785223,35.871155 17.377710,29.851818 
	C25.139423,21.497679 34.863514,16.154823 44.792744,11.054393 
	C46.882141,9.981112 49.107529,9.172556 51.698303,8.547246 
	C53.607510,11.644503 52.119606,13.444784 50.210484,15.336004 
	C39.711807,25.736187 29.259512,36.183674 18.849680,46.672867 
	C12.842895,52.725449 6.946230,58.887318 1.000000,65.000000 
	C1.000000,60.975456 1.000000,56.950912 1.000000,52.463184 
z"/>
<path fill="#000000" opacity="1.000000" stroke="none" 
	d="
M140.865875,131.009766 
	C144.711838,139.109711 148.557785,147.209656 152.201874,155.654785 
	C140.979111,156.000000 129.958206,156.000000 118.464996,155.531494 
	C118.015213,148.406616 118.037743,141.750214 118.492722,135.056824 
	C126.238739,133.683136 133.552307,132.346451 140.865875,131.009766 
M134.063065,134.528656 
	C133.728195,134.463089 133.393311,134.397522 133.058441,134.331955 
	C133.315857,134.488266 133.573288,134.644592 134.063065,134.528656 
z"/>
<path fill="#C1C4C6" opacity="1.000000" stroke="none" 
	d="
M2.957352,88.106621 
	C2.471297,87.850037 1.985242,87.593452 1.249594,87.668434 
	C1.000000,85.629440 1.000000,83.258888 1.304587,80.477806 
	C2.495129,79.624329 3.615669,79.387337 4.220943,78.697945 
	C5.744750,76.962357 6.823021,74.806152 8.455209,73.199944 
	C19.070917,62.753239 29.911127,52.532482 40.434536,41.994781 
	C50.818954,31.596264 60.918182,20.912884 71.137619,10.349729 
	C73.763779,7.635251 76.371445,4.902897 79.233650,2.212312 
	C79.986458,1.830579 80.493233,1.415290 81.000000,1.000000 
	C85.689255,1.000000 90.378510,1.000000 95.524887,1.330827 
	C95.656029,2.443547 95.330055,3.225439 94.566437,4.005545 
	C92.087402,4.008426 90.046028,4.013092 87.635223,4.026587 
	C83.680992,7.019424 79.875404,9.777792 76.552307,13.029284 
	C66.123672,23.233200 55.876740,33.622814 45.559322,43.940399 
	C33.478470,56.021458 21.352789,68.058418 9.372739,80.238625 
	C7.861661,81.774948 7.115828,84.063950 6.011662,86.254242 
	C6.004795,86.670937 6.001713,86.837608 5.659272,87.014595 
	C4.532393,87.385483 3.744872,87.746056 2.957352,88.106621 
z"/>
<path fill="#C3C5C8" opacity="1.000000" stroke="none" 
	d="
M78.987610,2.178757 
	C76.371445,4.902897 73.763779,7.635251 71.137619,10.349729 
	C60.918182,20.912884 50.818954,31.596264 40.434536,41.994781 
	C29.911127,52.532482 19.070917,62.753239 8.455209,73.199944 
	C6.823021,74.806152 5.744750,76.962357 4.220943,78.697945 
	C3.615669,79.387337 2.495129,79.624329 1.304587,80.033646 
	C1.000000,79.250000 1.000000,78.500000 1.352637,77.254776 
	C2.956182,73.856560 3.627125,70.463737 5.578974,68.152771 
	C9.617485,63.371208 14.336514,59.164246 18.777565,54.722866 
	C33.124580,40.374813 47.446659,26.001621 61.849163,11.709485 
	C63.893227,9.681086 66.329895,8.048319 68.476646,6.319573 
	C68.072792,5.731352 67.535622,4.948938 66.998444,4.166523 
	C68.971260,3.369037 70.944069,2.571552 72.958443,1.387033 
	C73.444443,1.000000 73.888893,1.000000 74.944672,1.214673 
	C76.699875,1.679149 77.843742,1.928953 78.987610,2.178757 
z"/>
<path fill="#BCBEC1" opacity="1.000000" stroke="none" 
	d="
M95.004089,4.007330 
	C95.330055,3.225439 95.656029,2.443547 95.990997,1.330827 
	C102.354401,1.000000 108.708794,1.000000 115.464951,1.385414 
	C114.630463,2.515302 113.443016,3.363106 112.144753,3.976280 
	C110.740829,4.639350 108.844086,4.693453 107.842186,5.693987 
	C104.465019,9.066574 101.356094,12.712009 98.206886,16.307663 
	C93.109940,22.127176 88.062424,27.989983 82.653580,33.997253 
	C76.604149,36.765736 70.754059,39.107719 65.231651,42.062176 
	C60.955074,44.350121 57.088383,47.404213 53.042946,49.745247 
	C53.867050,48.019314 54.369938,46.190487 55.562458,45.393402 
	C61.193058,41.629860 66.482948,37.645306 69.503250,31.301353 
	C69.975845,30.308687 71.028542,29.574591 71.865326,28.775742 
	C77.706429,23.199421 83.692978,17.766777 89.346924,12.007347 
	C91.605469,9.706669 93.139984,6.695227 95.004089,4.007330 
z"/>
<path fill="#88878F" opacity="1.000000" stroke="none" 
	d="
M172.996185,116.740036 
	C170.137741,115.125183 167.437744,113.191475 164.414719,110.903503 
	C164.091675,110.549248 164.055511,110.152031 164.280991,109.972862 
	C164.650604,109.248634 164.794754,108.703568 165.267303,108.008873 
	C167.302460,106.923607 169.224976,106.240578 170.673645,105.002899 
	C174.365585,101.848640 179.508408,99.850647 180.021469,93.996704 
	C179.990646,93.996857 180.003387,94.057159 180.303070,93.933495 
	C180.750748,93.191429 180.898758,92.573029 181.003815,91.962875 
	C180.960846,91.971138 180.972763,92.057808 181.270630,91.941788 
	C181.686172,91.205940 181.803833,90.586105 181.957001,89.959595 
	C181.992508,89.952904 181.919937,89.941063 182.267212,89.796036 
	C186.671768,87.645248 186.512238,83.330956 188.172394,80.090515 
	C192.592575,78.191116 196.796280,76.095551 201.000000,74.000000 
	C201.000000,77.361290 201.000000,80.722572 201.000000,84.541931 
	C199.917084,86.200935 198.455719,87.227844 197.810852,88.630219 
	C192.394852,100.408005 183.735443,109.254463 172.996185,116.740036 
M188.518784,84.789055 
	C188.518784,84.789055 188.407639,85.155701 188.407639,85.155701 
	C188.407639,85.155701 188.666153,84.921692 188.518784,84.789055 
z"/>
<path fill="#B7B9BC" opacity="1.000000" stroke="none" 
	d="
M82.994034,33.834511 
	C88.062424,27.989983 93.109940,22.127176 98.206886,16.307663 
	C101.356094,12.712009 104.465019,9.066574 107.842186,5.693987 
	C108.844086,4.693453 110.740829,4.639350 112.144753,3.976280 
	C113.443016,3.363106 114.630463,2.515302 115.933357,1.385414 
	C117.388893,1.000000 118.777779,1.000000 120.583336,0.999999 
	C121.572014,1.664402 122.027512,2.693912 122.739082,2.921002 
	C124.490524,3.479953 126.359680,3.670028 128.477173,4.405203 
	C127.560875,5.561578 126.068703,6.081747 125.181999,7.119334 
	C119.048431,14.296611 113.040977,21.581663 106.564545,28.901695 
	C98.422066,30.592369 90.708054,32.213440 82.994034,33.834511 
z"/>
<path fill="#C5C8CA" opacity="1.000000" stroke="none" 
	d="
M66.593338,4.089258 
	C67.535622,4.948938 68.072792,5.731352 68.476646,6.319573 
	C66.329895,8.048319 63.893227,9.681086 61.849163,11.709485 
	C47.446659,26.001621 33.124580,40.374813 18.777565,54.722866 
	C14.336514,59.164246 9.617485,63.371208 5.578974,68.152771 
	C3.627125,70.463737 2.956182,73.856560 1.352637,76.879776 
	C1.000000,73.307091 1.000000,69.614182 1.000000,65.460632 
	C6.946230,58.887318 12.842895,52.725449 18.849680,46.672867 
	C29.259512,36.183674 39.711807,25.736187 50.210484,15.336004 
	C52.119606,13.444784 53.607510,11.644503 52.062065,8.510012 
	C56.727924,6.782364 61.458080,5.397178 66.593338,4.089258 
z"/>
<path fill="#195DAB" opacity="1.000000" stroke="none" 
	d="
M156.468658,156.000000 
	C155.862183,148.950928 162.789734,147.666641 166.248672,143.558517 
	C167.928146,141.563858 170.563461,140.333542 172.089554,138.259445 
	C174.557068,134.905869 177.411987,133.726761 181.725433,134.970581 
	C186.070236,141.724564 190.017029,148.483902 193.981903,155.621613 
	C181.645767,156.000000 169.291550,156.000000 156.468658,156.000000 
z"/>
<path fill="#1F63B5" opacity="1.000000" stroke="none" 
	d="
M118.060272,135.093826 
	C118.037743,141.750214 118.015213,148.406616 117.996338,155.531494 
	C110.645744,156.000000 103.291496,156.000000 95.468628,156.000000 
	C92.836075,154.918091 90.672142,153.836197 88.097580,152.548981 
	C92.913101,148.121964 97.650414,143.655869 102.517464,139.335938 
	C105.234360,136.924454 108.752914,135.190231 110.847969,132.363510 
	C113.253952,129.117264 114.485062,125.000237 116.626122,121.593666 
	C117.370575,126.315186 117.715424,130.704514 118.060272,135.093826 
z"/>
<path fill="#909097" opacity="1.000000" stroke="none" 
	d="
M194.131073,41.953045 
	C196.225006,45.836582 198.318939,49.720116 200.706436,53.301826 
	C201.000000,53.750000 201.000000,54.500000 200.635391,55.642368 
	C195.904480,59.022121 191.538162,62.009510 187.103027,64.608879 
	C185.544022,61.661236 187.110321,56.988842 181.997009,56.933655 
	C181.997009,56.933655 181.988113,57.010006 181.990692,56.642235 
	C181.620300,54.864658 181.247345,53.454845 181.237946,52.019440 
	C182.756729,51.159920 183.956284,50.380371 185.058716,49.481667 
	C188.104553,46.998753 191.109787,44.466053 194.131073,41.953045 
z"/>
<path fill="#8C8D96" opacity="1.000000" stroke="none" 
	d="
M187.171860,64.996895 
	C191.538162,62.009510 195.904480,59.022121 200.635391,56.017368 
	C201.000000,61.688042 201.000000,67.376083 201.000000,73.532059 
	C196.796280,76.095551 192.592575,78.191116 188.194992,79.643349 
	C188.059387,75.998581 188.117676,72.997147 188.464630,69.905579 
	C189.117737,69.041634 189.482162,68.267822 189.846588,67.494011 
	C189.196991,67.343384 188.547409,67.192749 187.618225,66.909271 
	C187.283035,66.183243 187.227448,65.590073 187.171860,64.996895 
z"/>
<path fill="#ADAEB2" opacity="1.000000" stroke="none" 
	d="
M79.233650,2.212312 
	C77.843742,1.928953 76.699875,1.679149 75.278000,1.214673 
	C76.714355,1.000000 78.428719,1.000000 80.571533,1.000000 
	C80.493233,1.415290 79.986458,1.830579 79.233650,2.212312 
z"/>
<path fill="#BEC1C4" opacity="1.000000" stroke="none" 
	d="
M94.566437,4.005544 
	C93.139984,6.695227 91.605469,9.706669 89.346924,12.007347 
	C83.692978,17.766777 77.706429,23.199421 71.865326,28.775742 
	C71.028542,29.574591 69.975845,30.308687 69.503250,31.301353 
	C66.482948,37.645306 61.193058,41.629860 55.562458,45.393402 
	C54.369938,46.190487 53.867050,48.019314 52.916435,50.052063 
	C50.469112,53.485828 48.151772,56.240307 45.525909,58.951370 
	C44.418381,58.939785 43.329762,58.645958 42.867809,59.056782 
	C40.067188,61.547417 37.370361,64.159424 34.711548,66.803970 
	C26.925186,74.548538 19.234993,82.391411 11.350742,90.034462 
	C9.916793,91.424530 7.744317,92.052773 5.912776,93.032707 
	C4.999836,91.905846 4.086895,90.778984 3.467974,89.278481 
	C4.506167,88.605751 5.250342,88.306664 6.039388,88.094513 
	C6.084259,88.181442 6.317603,88.194122 6.317603,88.194122 
	C6.317603,88.194122 6.007746,87.994324 6.005667,87.746811 
	C6.003587,87.499298 5.998631,87.004272 5.998631,87.004272 
	C6.001713,86.837608 6.004795,86.670937 6.355891,86.192108 
	C10.685503,82.203758 14.791539,78.652473 18.628139,74.830711 
	C40.561554,52.982082 62.445148,31.083332 84.290161,9.146338 
	C85.761398,7.668909 86.777084,5.737841 88.004646,4.017759 
	C90.046028,4.013092 92.087402,4.008426 94.566437,4.005544 
z"/>
<path fill="#BBBDC0" opacity="1.000000" stroke="none" 
	d="
M5.975365,93.406509 
	C7.744317,92.052773 9.916793,91.424530 11.350742,90.034462 
	C19.234993,82.391411 26.925186,74.548538 34.711548,66.803970 
	C37.370361,64.159424 40.067188,61.547417 42.867809,59.056782 
	C43.329762,58.645958 44.418381,58.939785 45.488876,59.319740 
	C42.306320,65.688858 41.643421,72.187653 41.834076,79.159058 
	C36.531303,84.365067 31.250628,89.129158 26.403692,94.299835 
	C22.542936,98.418465 16.280832,101.577965 18.976091,109.081978 
	C13.946540,104.587540 8.667373,100.304161 5.975365,93.406509 
z"/>
<path fill="#ADAEB2" opacity="1.000000" stroke="none" 
	d="
M40.966400,124.116798 
	C35.521164,120.790062 30.075924,117.463333 24.317245,113.609421 
	C24.839092,111.170189 25.254904,108.876678 26.584719,107.414330 
	C31.470200,102.041962 36.607220,96.893066 41.772408,91.784241 
	C42.976204,90.593582 44.663788,89.892052 46.430420,89.102600 
	C48.223862,90.889862 47.687309,93.616600 50.967033,94.608879 
	C53.400921,95.345253 55.034977,98.725258 57.016014,101.314087 
	C53.218399,106.737152 49.376469,111.734764 45.665749,116.827972 
	C43.966251,119.160645 42.524853,121.681366 40.966400,124.116798 
z"/>
<path fill="#A4A5AA" opacity="1.000000" stroke="none" 
	d="
M62.961929,131.109390 
	C58.082222,129.997452 53.202518,128.885529 48.200638,127.088898 
	C52.865841,120.973175 57.683113,115.567993 62.416737,110.090523 
	C63.430870,108.917015 64.141998,107.481651 65.353073,106.203293 
	C69.156021,107.787453 72.598618,109.335243 76.015259,111.247574 
	C72.607124,115.627129 69.482368,119.905075 65.748466,123.560852 
	C63.421814,125.838837 62.347980,128.016754 62.961929,131.109390 
z"/>
<path fill="#9E9FA5" opacity="1.000000" stroke="none" 
	d="
M63.166290,131.447769 
	C62.347980,128.016754 63.421814,125.838837 65.748466,123.560852 
	C69.482368,119.905075 72.607124,115.627129 76.382408,111.299309 
	C78.797585,111.999512 80.819656,113.012512 82.929527,114.359161 
	C83.161568,115.129471 83.305801,115.566124 83.362305,116.374985 
	C83.341370,117.502090 83.408165,118.256989 83.381424,119.468201 
	C83.199150,124.911049 83.110405,129.897598 83.021667,134.884140 
	C83.021667,134.884140 82.899719,134.893555 82.887741,134.953369 
	C76.374069,133.937515 69.872360,132.861832 63.166290,131.447769 
z"/>
<path fill="#B7B9BC" opacity="1.000000" stroke="none" 
	d="
M46.128777,88.965469 
	C44.663788,89.892052 42.976204,90.593582 41.772408,91.784241 
	C36.607220,96.893066 31.470200,102.041962 26.584719,107.414330 
	C25.254904,108.876678 24.839092,111.170189 23.996725,113.460434 
	C22.398148,112.465958 20.806648,111.093307 19.095619,109.401321 
	C16.280832,101.577965 22.542936,98.418465 26.403692,94.299835 
	C31.250628,89.129158 36.531303,84.365067 42.172318,79.339401 
	C43.856152,82.490692 44.992466,85.728088 46.128777,88.965469 
z"/>
<path fill="#A9AAAF" opacity="1.000000" stroke="none" 
	d="
M64.992706,106.166916 
	C64.141998,107.481651 63.430870,108.917015 62.416737,110.090523 
	C57.683113,115.567993 52.865841,120.973175 48.019173,126.760254 
	C45.737045,126.327202 43.514214,125.538086 41.128895,124.432884 
	C42.524853,121.681366 43.966251,119.160645 45.665749,116.827972 
	C49.376469,111.734764 53.218399,106.737152 57.340546,101.437653 
	C60.113811,102.838844 62.553261,104.502876 64.992706,106.166916 
z"/>
<path fill="#C0C2C5" opacity="1.000000" stroke="none" 
	d="
M5.659272,87.014595 
	C5.998631,87.004272 6.003587,87.499298 6.001820,87.749649 
	C6.000052,88.000000 5.994517,88.007576 5.994516,88.007576 
	C5.250342,88.306664 4.506167,88.605751 3.464355,88.951630 
	C3.166718,88.998421 3.015137,88.563530 2.986244,88.335083 
	C3.744872,87.746056 4.532393,87.385483 5.659272,87.014595 
z"/>
<path fill="#000000" opacity="1.000000" stroke="none" 
	d="
M65.353073,106.203293 
	C62.553261,104.502876 60.113811,102.838844 57.349834,101.051254 
	C55.034977,98.725258 53.400921,95.345253 50.967033,94.608879 
	C47.687309,93.616600 48.223862,90.889862 46.430424,89.102600 
	C44.992466,85.728088 43.856152,82.490692 42.381596,79.072960 
	C41.643421,72.187653 42.306320,65.688858 45.797398,59.363152 
	C48.151772,56.240307 50.469112,53.485828 52.912964,50.424534 
	C57.088383,47.404213 60.955074,44.350121 65.231651,42.062176 
	C70.754059,39.107719 76.604149,36.765736 82.653580,33.997257 
	C90.708054,32.213440 98.422066,30.592369 107.027924,28.978062 
	C115.940071,29.011255 123.960373,29.037683 132.202789,29.411041 
	C134.933350,29.877008 137.441803,29.996050 140.158752,30.457504 
	C144.567795,31.559341 148.768341,32.318768 153.017487,33.450039 
	C157.031479,35.589176 160.996902,37.356472 165.126343,39.432129 
	C168.515106,41.865791 171.739868,43.991089 175.090546,46.416328 
	C177.102432,48.492527 178.988403,50.268780 180.874390,52.045033 
	C181.247345,53.454845 181.620300,54.864658 182.028778,56.647423 
	C180.594421,55.737709 179.124542,54.455040 177.200470,52.723763 
	C174.177658,50.471340 171.609055,48.667534 168.841919,46.556625 
	C162.757111,45.226025 156.870834,44.202526 150.520660,43.116226 
	C127.522034,43.053425 104.987312,43.053425 82.328735,43.053425 
	C82.181152,44.170940 82.025269,44.802021 82.024971,45.433178 
	C82.014824,66.860413 82.003723,88.287689 82.057137,109.714806 
	C82.060722,111.152351 82.568466,112.588638 82.841721,114.025513 
	C80.819656,113.012512 78.797585,111.999512 76.408356,110.934769 
	C72.598618,109.335243 69.156021,107.787453 65.353073,106.203293 
M137.491867,39.994343 
	C119.703957,39.994343 101.916039,39.994343 84.128128,39.994343 
	C84.131104,40.225651 84.134087,40.456955 84.137062,40.688263 
	C106.713196,40.688263 129.289337,40.688263 151.865479,40.688263 
	C151.867905,40.456955 151.870331,40.225651 151.872772,39.994343 
	C147.410828,39.994343 142.948868,39.994343 137.491867,39.994343 
M81.001724,82.500000 
	C81.001724,69.676064 81.001724,56.852123 81.001724,44.028187 
	C79.998421,64.963074 79.994972,85.891266 80.007866,106.819458 
	C80.008568,107.950333 80.146255,109.081131 80.220169,110.211960 
	C80.480690,110.209778 80.741203,110.207588 81.001724,110.205406 
	C81.001724,101.303604 81.001724,92.401802 81.001724,82.500000 
M95.320587,32.824661 
	C95.859283,32.824661 96.397987,32.824661 96.936684,32.824661 
	C96.915947,32.595154 96.895203,32.365646 96.874466,32.136139 
	C96.276474,32.241879 95.678474,32.347614 95.320587,32.824661 
z"/>
<path fill="#1F63B5" opacity="1.000000" stroke="none" 
	d="
M164.055511,110.152031 
	C164.055511,110.152031 164.091675,110.549248 164.117981,110.746849 
	C154.404678,110.288467 150.422089,118.823158 143.984909,123.466431 
	C142.713013,124.383865 140.861847,124.498215 138.853241,124.857681 
	C136.615417,122.432693 134.802185,120.132950 132.852646,117.539108 
	C131.465759,115.870865 130.215195,114.496719 128.964630,113.122574 
	C132.390839,109.260300 135.624817,105.202507 139.297729,101.591133 
	C142.920380,98.029182 146.959991,94.886482 150.865036,91.617599 
	C158.689117,85.068092 166.717575,78.748573 174.299530,71.931351 
	C177.064850,69.444939 179.230026,69.068817 182.524979,71.558136 
	C182.415787,76.480782 181.788544,80.850571 181.403992,85.241615 
	C181.269165,86.781227 181.730713,88.373070 181.919937,89.941063 
	C181.919937,89.941063 181.992508,89.952904 181.671722,90.096230 
	C181.224884,90.845642 181.098831,91.451721 180.972763,92.057808 
	C180.972763,92.057808 180.960846,91.971138 180.643311,92.117065 
	C180.218307,92.861046 180.110855,93.459099 180.003387,94.057159 
	C180.003387,94.057159 179.990646,93.996857 179.728607,93.724167 
	C173.793930,97.752121 168.121292,102.052773 161.845779,106.810501 
	C162.353363,107.127312 163.173874,107.639420 164.000122,108.484665 
	C164.022415,109.262550 164.038971,109.707291 164.055511,110.152031 
z"/>
<path fill="#2367BB" opacity="1.000000" stroke="none" 
	d="
M83.262024,134.918701 
	C83.110405,129.897598 83.199150,124.911049 83.678696,119.438568 
	C84.377838,117.967346 84.686165,116.982071 84.995667,115.622269 
	C84.998917,114.498642 85.000977,113.749565 85.352951,112.944679 
	C88.088577,111.462616 90.748138,110.351074 92.812180,108.555115 
	C101.342239,101.132973 109.691948,93.503571 118.569427,85.969284 
	C127.007713,85.622681 134.984482,85.257111 142.961243,84.891541 
	C142.369263,85.813148 141.868637,87.458977 141.171524,87.546898 
	C131.871567,88.719749 126.142250,95.605652 119.639008,101.054649 
	C109.673309,109.404816 100.002335,118.113205 90.374443,126.854774 
	C88.371391,128.673431 87.101555,131.299637 85.042000,133.912964 
	C84.342163,134.476364 84.140686,134.719101 83.985756,135.000488 
	C83.985756,135.000488 83.502388,134.953247 83.262024,134.918701 
z"/>
<path fill="#2367BB" opacity="1.000000" stroke="none" 
	d="
M169.040436,46.863724 
	C171.609055,48.667534 174.177658,50.471340 176.892487,52.576946 
	C176.433121,53.795380 176.000763,55.303333 175.195724,55.539185 
	C164.612122,58.639854 158.187317,67.309502 150.330826,74.021614 
	C149.231445,74.960854 149.131042,76.992714 148.332962,78.383827 
	C147.600250,79.660995 146.549881,80.755936 145.315094,81.641434 
	C145.031204,80.226410 145.071686,79.101112 145.323990,77.714478 
	C145.663376,76.573814 145.790924,75.694496 145.936890,74.477737 
	C144.956787,72.465034 143.958252,70.789757 142.969650,68.708755 
	C143.679825,66.354355 143.888412,63.953655 145.180099,62.548782 
	C148.086227,59.388023 151.275681,56.344578 154.822388,53.954716 
	C158.657608,51.370449 161.729202,45.993526 167.829010,49.046600 
	C167.860687,49.062458 168.620590,47.623363 169.040436,46.863724 
z"/>
<path fill="#000000" opacity="1.000000" stroke="none" 
	d="
M142.959702,69.114479 
	C143.958252,70.789757 144.956787,72.465034 145.617676,74.645058 
	C145.224045,76.091805 145.168091,77.033806 145.112152,77.975807 
	C145.071686,79.101112 145.031204,80.226410 144.934265,81.657310 
	C144.257141,82.730949 143.636475,83.498993 142.988525,84.579285 
	C134.984482,85.257111 127.007713,85.622681 118.526764,85.557159 
	C117.959755,83.748619 117.896935,82.371170 117.898087,80.582420 
	C117.603378,78.767311 117.244713,77.363510 117.145126,75.737595 
	C117.331795,74.007149 117.259377,72.498817 117.475891,70.914612 
	C118.164085,69.929298 118.563354,69.019859 119.225220,68.450989 
	C127.311783,68.899193 135.135742,69.006836 142.959702,69.114479 
M119.980751,74.975922 
	C119.878029,73.986298 119.775314,72.996681 119.672592,72.007057 
	C119.577629,72.024200 119.482658,72.041344 119.387695,72.058487 
	C119.387695,76.253166 119.387695,80.447838 119.387695,84.682526 
	C126.274376,84.682526 132.787827,84.682526 139.301285,84.682526 
	C139.302094,84.379929 139.302887,84.077339 139.303680,83.774742 
	C132.957108,83.774742 126.610527,83.774742 119.981064,83.774742 
	C119.981064,80.781548 119.981064,78.316025 119.980751,74.975922 
z"/>
<path fill="#8C8D96" opacity="1.000000" stroke="none" 
	d="
M132.988953,117.833206 
	C134.802185,120.132950 136.615417,122.432693 138.649353,125.005043 
	C139.538528,126.958527 140.206985,128.639404 140.870667,130.665024 
	C133.552307,132.346451 126.238739,133.683136 118.492722,135.056824 
	C117.715424,130.704514 117.370575,126.315186 116.972313,121.465424 
	C117.160446,120.450943 117.401993,119.896896 118.310547,119.162064 
	C123.648033,118.598579 128.318497,118.215897 132.988953,117.833206 
z"/>
<path fill="#000000" opacity="1.000000" stroke="none" 
	d="
M182.267212,89.796036 
	C181.730713,88.373070 181.269165,86.781227 181.403992,85.241615 
	C181.788544,80.850571 182.415787,76.480782 182.889801,71.701782 
	C182.554077,66.767212 182.276077,62.233482 181.997543,57.316704 
	C187.110321,56.988842 185.544022,61.661236 187.103027,64.608879 
	C187.227448,65.590073 187.283035,66.183243 187.665344,67.277885 
	C188.053360,68.518135 188.114655,69.256920 188.175964,69.995705 
	C188.117676,72.997147 188.059387,75.998581 187.978516,79.447189 
	C186.512238,83.330956 186.671768,87.645248 182.267212,89.796036 
z"/>
<path fill="#000000" opacity="1.000000" stroke="none" 
	d="
M132.852646,117.539108 
	C128.318497,118.215897 123.648033,118.598579 118.540421,118.961395 
	C118.103271,116.961678 118.103271,114.981842 118.103271,112.766899 
	C119.505684,112.829865 120.866699,112.890976 123.010567,112.955246 
	C124.862617,112.915565 125.931824,112.872726 127.001022,112.829880 
	C127.437523,112.892014 127.874016,112.954132 128.637573,113.069412 
	C130.215195,114.496719 131.465759,115.870865 132.852646,117.539108 
M123.860306,116.076050 
	C123.736092,116.186150 123.579468,116.277992 123.502502,116.414696 
	C123.468369,116.475296 123.596657,116.722786 123.648857,116.722031 
	C124.252312,116.713264 124.855301,116.673164 125.458420,116.641388 
	C125.138962,116.435623 124.819496,116.229858 123.860306,116.076050 
z"/>
<path fill="#1F63B5" opacity="1.000000" stroke="none" 
	d="
M126.897194,112.526962 
	C125.931824,112.872726 124.862617,112.915565 123.396698,112.891357 
	C124.264442,112.624214 125.528908,112.424133 126.897194,112.526962 
z"/>
<path fill="#2A6FC5" opacity="1.000000" stroke="none" 
	d="
M84.186050,134.871216 
	C84.140686,134.719101 84.342163,134.476364 84.786880,134.139572 
	C84.835480,134.293335 84.636406,134.538361 84.186050,134.871216 
z"/>
<path fill="#B1B2B6" opacity="1.000000" stroke="none" 
	d="
M131.980682,29.064114 
	C123.960373,29.037683 115.940071,29.011255 107.456390,28.908461 
	C113.040977,21.581663 119.048431,14.296611 125.181999,7.119334 
	C126.068703,6.081747 127.560875,5.561578 128.882416,4.485046 
	C134.065353,5.450590 139.138718,6.733055 144.274460,8.393311 
	C137.009689,12.910955 132.281204,19.549078 126.860313,24.962492 
	C129.232697,26.862865 130.606689,27.963490 131.980682,29.064114 
z"/>
<path fill="#A4A5AA" opacity="1.000000" stroke="none" 
	d="
M152.968903,33.078194 
	C148.768341,32.318768 144.567795,31.559341 140.306305,30.143654 
	C144.358765,24.503506 148.521606,19.558956 152.542831,14.501785 
	C153.325806,13.517109 153.557892,12.094403 154.044067,10.873739 
	C158.260605,12.667168 162.477127,14.460598 166.842163,16.932590 
	C162.316742,22.766836 157.642822,27.922516 152.968903,33.078194 
z"/>
<path fill="#A9AAAF" opacity="1.000000" stroke="none" 
	d="
M153.837204,10.539398 
	C153.557892,12.094403 153.325806,13.517109 152.542831,14.501785 
	C148.521606,19.558956 144.358765,24.503506 140.097824,29.801243 
	C137.441803,29.996050 134.933350,29.877008 132.202789,29.411039 
	C130.606689,27.963490 129.232697,26.862865 126.860313,24.962492 
	C132.281204,19.549078 137.009689,12.910955 144.659683,8.470152 
	C147.865128,8.847820 150.747742,9.526438 153.837204,10.539398 
z"/>
<path fill="#9E9FA5" opacity="1.000000" stroke="none" 
	d="
M153.017487,33.450043 
	C157.642822,27.922516 162.316742,22.766836 167.019180,17.245983 
	C169.953873,19.008930 172.860062,21.137049 175.823349,23.908203 
	C172.241074,29.408747 168.601700,34.266254 164.962326,39.123764 
	C160.996902,37.356472 157.031479,35.589176 153.017487,33.450043 
z"/>
<path fill="#9B9BA1" opacity="1.000000" stroke="none" 
	d="
M165.126343,39.432129 
	C168.601700,34.266254 172.241074,29.408747 175.962891,24.217155 
	C179.286575,26.347988 182.527817,28.812902 185.874802,31.954926 
	C185.726379,33.223286 185.589996,34.233570 185.200470,34.343040 
	C179.179474,36.035072 177.166565,41.148273 174.964615,46.116386 
	C171.739868,43.991089 168.515106,41.865791 165.126343,39.432129 
z"/>
<path fill="#96969C" opacity="1.000000" stroke="none" 
	d="
M175.090546,46.416328 
	C177.166565,41.148273 179.179474,36.035072 185.200470,34.343040 
	C185.589996,34.233570 185.726379,33.223286 186.012466,32.260075 
	C188.644562,35.033562 191.244736,38.179008 193.988007,41.638748 
	C191.109787,44.466053 188.104553,46.998753 185.058716,49.481667 
	C183.956284,50.380371 182.756729,51.159920 181.237946,52.019440 
	C178.988403,50.268780 177.102432,48.492527 175.090546,46.416328 
z"/>
<path fill="#040404" opacity="1.000000" stroke="none" 
	d="
M133.946884,134.664780 
	C133.573288,134.644592 133.315857,134.488266 133.058441,134.331955 
	C133.393311,134.397522 133.728195,134.463089 133.946884,134.664780 
z"/>
<path fill="#C0C2C5" opacity="1.000000" stroke="none" 
	d="
M87.635223,4.026587 
	C86.777084,5.737841 85.761398,7.668909 84.290161,9.146338 
	C62.445148,31.083332 40.561554,52.982082 18.628139,74.830711 
	C14.791539,78.652473 10.685503,82.203758 6.359676,85.942093 
	C7.115828,84.063950 7.861661,81.774948 9.372739,80.238625 
	C21.352789,68.058418 33.478470,56.021458 45.559322,43.940399 
	C55.876740,33.622814 66.123672,23.233200 76.552307,13.029284 
	C79.875404,9.777792 83.680992,7.019424 87.635223,4.026587 
z"/>
<path fill="#000000" opacity="1.000000" stroke="none" 
	d="
M163.994370,108.151520 
	C163.173874,107.639420 162.353363,107.127312 161.845779,106.810501 
	C168.121292,102.052773 173.793930,97.752121 179.759430,93.724007 
	C179.508408,99.850647 174.365585,101.848640 170.673645,105.002899 
	C169.224976,106.240578 167.302460,106.923607 165.031738,107.960693 
	C164.467728,108.062141 163.994370,108.151520 163.994370,108.151520 
z"/>
<path fill="#8C8D96" opacity="1.000000" stroke="none" 
	d="
M188.592468,84.855377 
	C188.666153,84.921692 188.407639,85.155701 188.407639,85.155701 
	C188.407639,85.155701 188.518784,84.789055 188.592468,84.855377 
z"/>
<path fill="#000000" opacity="1.000000" stroke="none" 
	d="
M180.303070,93.933495 
	C180.110855,93.459099 180.218307,92.861046 180.686279,92.108803 
	C180.898758,92.573029 180.750748,93.191429 180.303070,93.933495 
z"/>
<path fill="#1B5FAF" opacity="1.000000" stroke="none" 
	d="
M164.000122,108.484665 
	C163.994370,108.151520 164.467728,108.062141 164.703308,108.110321 
	C164.794754,108.703568 164.650604,109.248634 164.280991,109.972862 
	C164.038971,109.707291 164.022415,109.262550 164.000122,108.484665 
z"/>
<path fill="#040404" opacity="1.000000" stroke="none" 
	d="
M181.270630,91.941788 
	C181.098831,91.451721 181.224884,90.845642 181.636215,90.102921 
	C181.803833,90.586105 181.686172,91.205940 181.270630,91.941788 
z"/>
<path fill="#909097" opacity="1.000000" stroke="none" 
	d="
M188.464630,69.905579 
	C188.114655,69.256920 188.053360,68.518135 187.944946,67.410736 
	C188.547409,67.192749 189.196991,67.343384 189.846588,67.494011 
	C189.482162,68.267822 189.117737,69.041634 188.464630,69.905579 
z"/>
<path fill="#C0C2C5" opacity="1.000000" stroke="none" 
	d="
M6.003899,87.997162 
	C6.007746,87.994324 6.317603,88.194122 6.317603,88.194122 
	C6.317603,88.194122 6.084259,88.181442 6.039388,88.094513 
	C5.994517,88.007576 6.000052,88.000000 6.003899,87.997162 
z"/>
<path fill="#2A6FC5" opacity="1.000000" stroke="none" 
	d="
M85.003052,113.000481 
	C85.000977,113.749565 84.998917,114.498642 84.737671,115.624344 
	C84.135681,116.001564 83.792862,116.002174 83.450043,116.002777 
	C83.305801,115.566124 83.161568,115.129471 82.929527,114.359161 
	C82.568466,112.588638 82.060722,111.152351 82.057137,109.714806 
	C82.003723,88.287689 82.014824,66.860413 82.024971,45.433178 
	C82.025269,44.802021 82.181152,44.170940 82.328735,43.053425 
	C104.987312,43.053425 127.522034,43.053425 150.370819,43.468937 
	C146.457794,44.258705 142.230743,44.632961 137.534622,45.004982 
	C123.583420,45.003094 110.101181,44.973717 96.619179,45.017181 
	C90.509956,45.036877 85.018082,50.534679 85.008186,56.547752 
	C84.989830,67.699615 85.004738,78.851540 85.005066,90.471840 
	C85.003906,98.293655 85.003479,105.647072 85.003052,113.000481 
z"/>
<path fill="#2568BD" opacity="1.000000" stroke="none" 
	d="
M83.362305,116.374985 
	C83.792862,116.002174 84.135681,116.001564 84.736496,115.998878 
	C84.686165,116.982071 84.377838,117.967346 83.772240,118.982254 
	C83.408165,118.256989 83.341370,117.502090 83.362305,116.374985 
z"/>
<path fill="#2568BD" opacity="1.000000" stroke="none" 
	d="
M138.003677,45.007217 
	C142.230743,44.632961 146.457794,44.258705 150.834717,43.531738 
	C156.870834,44.202526 162.757111,45.226025 168.841904,46.556618 
	C168.620590,47.623363 167.860687,49.062458 167.829010,49.046600 
	C161.729202,45.993526 158.657608,51.370449 154.822388,53.954716 
	C151.275681,56.344578 148.086227,59.388023 145.180099,62.548782 
	C143.888412,63.953655 143.679825,66.354355 142.969650,68.708755 
	C135.135742,69.006836 127.311783,68.899193 119.235733,68.175247 
	C118.990318,67.375092 118.996979,67.191246 119.471489,67.005699 
	C125.419395,67.003990 130.899445,67.003990 136.379486,67.003990 
	C136.373840,66.669228 136.368210,66.334457 136.362564,65.999695 
	C130.241714,65.999695 124.120872,65.999695 118.013947,65.634628 
	C121.380989,61.829124 124.719002,58.373783 128.091537,54.952477 
	C131.377213,51.619274 134.698196,48.320892 138.003677,45.007217 
M153.533188,44.505085 
	C153.533188,44.505085 153.484573,44.525116 153.533188,44.505085 
z"/>
<path fill="#0080FB" opacity="1.000000" stroke="none" 
	d="
M137.989395,39.994343 
	C142.948868,39.994343 147.410828,39.994343 151.872772,39.994343 
	C151.870331,40.225651 151.867905,40.456955 151.865479,40.688263 
	C129.289337,40.688263 106.713196,40.688263 84.137062,40.688263 
	C84.134087,40.456955 84.131104,40.225651 84.128128,39.994343 
	C101.916039,39.994343 119.703957,39.994343 137.989395,39.994343 
z"/>
<path fill="#3F7FBF" opacity="1.000000" stroke="none" 
	d="
M81.001724,83.000000 
	C81.001724,92.401802 81.001724,101.303604 81.001724,110.205406 
	C80.741203,110.207588 80.480690,110.209778 80.220169,110.211960 
	C80.146255,109.081131 80.008568,107.950333 80.007866,106.819458 
	C79.994972,85.891266 79.998421,64.963074 81.001724,44.028187 
	C81.001724,56.852123 81.001724,69.676064 81.001724,83.000000 
z"/>
<path fill="#040404" opacity="1.000000" stroke="none" 
	d="
M95.200531,32.639008 
	C95.678474,32.347614 96.276474,32.241879 96.874466,32.136139 
	C96.895203,32.365646 96.915947,32.595154 96.936684,32.824661 
	C96.397987,32.824661 95.859283,32.824661 95.200531,32.639008 
z"/>
<path fill="#2568BD" opacity="1.000000" stroke="none" 
	d="
M85.352959,112.944679 
	C85.003479,105.647072 85.003906,98.293655 85.368889,90.456711 
	C87.491699,89.093575 89.508865,88.518494 90.963425,87.281723 
	C97.283974,81.907585 103.632698,76.538300 109.576797,70.761444 
	C112.610809,67.812798 114.739922,67.707458 117.186958,70.990479 
	C117.259377,72.498817 117.331795,74.007149 116.891159,76.147789 
	C116.863434,78.184639 117.348778,79.589180 117.834122,80.993729 
	C117.896935,82.371170 117.959755,83.748619 118.065247,85.538193 
	C109.691948,93.503571 101.342239,101.132973 92.812180,108.555115 
	C90.748138,110.351074 88.088577,111.462616 85.352959,112.944679 
z"/>
<path fill="#1F63B5" opacity="1.000000" stroke="none" 
	d="
M145.323975,77.714478 
	C145.168091,77.033806 145.224045,76.091805 145.599228,74.982483 
	C145.790924,75.694496 145.663376,76.573814 145.323975,77.714478 
z"/>
<path fill="#276BC0" opacity="1.000000" stroke="none" 
	d="
M117.475891,70.914612 
	C114.739922,67.707458 112.610809,67.812798 109.576797,70.761444 
	C103.632698,76.538300 97.283974,81.907585 90.963425,87.281723 
	C89.508865,88.518494 87.491699,89.093575 85.369621,89.988297 
	C85.004738,78.851540 84.989830,67.699615 85.008186,56.547752 
	C85.018082,50.534679 90.509956,45.036877 96.619179,45.017181 
	C110.101181,44.973717 123.583420,45.003094 137.534622,45.004986 
	C134.698196,48.320892 131.377213,51.619274 128.091537,54.952477 
	C124.719002,58.373783 121.380989,61.829124 118.146667,65.834755 
	C118.471680,66.650833 118.717735,66.853317 119.003632,67.007408 
	C118.996979,67.191246 118.990318,67.375092 118.973137,67.834686 
	C118.563354,69.019859 118.164085,69.929298 117.475891,70.914612 
z"/>
<path fill="#195DAB" opacity="1.000000" stroke="none" 
	d="
M119.980911,75.413208 
	C119.981064,78.316025 119.981064,80.781548 119.981064,83.774742 
	C126.610527,83.774742 132.957108,83.774742 139.303680,83.774742 
	C139.302887,84.077339 139.302094,84.379929 139.301285,84.682526 
	C132.787827,84.682526 126.274376,84.682526 119.387695,84.682526 
	C119.387695,80.447838 119.387695,76.253166 119.387695,72.058487 
	C119.482658,72.041344 119.577629,72.024200 119.672592,72.007057 
	C119.775314,72.996681 119.878029,73.986298 119.980911,75.413208 
z"/>
<path fill="#276BC0" opacity="1.000000" stroke="none" 
	d="
M117.898087,80.582420 
	C117.348778,79.589180 116.863434,78.184639 116.632065,76.369904 
	C117.244713,77.363510 117.603378,78.767311 117.898087,80.582420 
z"/>
<path fill="#A9AAAF" opacity="1.000000" stroke="none" 
	d="
M124.180168,116.050072 
	C124.819496,116.229858 125.138962,116.435623 125.458420,116.641388 
	C124.855301,116.673164 124.252312,116.713264 123.648857,116.722031 
	C123.596657,116.722786 123.468369,116.475296 123.502502,116.414696 
	C123.579468,116.277992 123.736092,116.186150 124.180168,116.050072 
z"/>
<path fill="#2A6FC5" opacity="1.000000" stroke="none" 
	d="
M119.471489,67.005699 
	C118.717735,66.853317 118.471680,66.650833 118.132751,66.199814 
	C124.120872,65.999695 130.241714,65.999695 136.362564,65.999695 
	C136.368210,66.334457 136.373840,66.669228 136.379486,67.003990 
	C130.899445,67.003990 125.419395,67.003990 119.471489,67.005699 
z"/>
<path fill="#2A6FC5" opacity="1.000000" stroke="none" 
	d="
M153.508881,44.515099 
	C153.484573,44.525116 153.533188,44.505085 153.508881,44.515099 
z"/>
</svg>